<svg width="71" height="72" xmlns="http://www.w3.org/2000/svg" xmlns:xlink="http://www.w3.org/1999/xlink" xml:space="preserve" overflow="hidden"><g transform="translate(-636 -605)"><path d="M915.436 362.851 915.436 312.559 933.923 312.559 933.923 328.091 952.41 328.091 952.41 362.851 915.436 362.851ZM938.365 314.408 947.604 323.653 938.365 323.653 938.365 314.408ZM938.365 308.122 910.994 308.122 910.994 367.288 956.852 367.288 956.852 324.393 938.365 308.122Z" fill="#158780" transform="matrix(1 0 0 1.01408 -262.423 298.538)"/><path d="M919.869 335.486 947.977 335.486 947.977 338.444 919.869 338.444Z" fill="#158780" transform="matrix(1 0 0 1.01408 -262.423 298.538)"/><path d="M919.869 329.569 929.481 329.569 929.481 332.528 919.869 332.528Z" fill="#158780" transform="matrix(1 0 0 1.01408 -262.423 298.538)"/><path d="M919.869 341.403 947.977 341.403 947.977 344.361 919.869 344.361Z" fill="#158780" transform="matrix(1 0 0 1.01408 -262.423 298.538)"/><path d="M919.869 347.319 947.977 347.319 947.977 350.278 919.869 350.278Z" fill="#158780" transform="matrix(1 0 0 1.01408 -262.423 298.538)"/><path d="M919.869 353.236 947.977 353.236 947.977 356.194 919.869 356.194Z" fill="#158780" transform="matrix(1 0 0 1.01408 -262.423 298.538)"/><path d="M954.404 346.296C947.832 346.296 942.516 351.617 942.516 358.18 942.516 364.742 947.832 370.063 954.404 370.063 960.967 370.063 966.283 364.742 966.283 358.18 966.283 358.179 966.283 358.179 966.283 358.178 966.283 351.617 960.967 346.298 954.413 346.296 954.404 346.296 954.404 346.296 954.404 346.296ZM960.229 359.237 955.46 359.237 955.46 364.004 953.339 364.004 953.339 359.236 948.569 359.236 948.569 357.12 953.339 357.12 953.339 352.352 955.46 352.352 955.46 357.12 960.229 357.12Z" stroke="#158780" stroke-width="0.312921" fill="#FFFFFF" transform="matrix(1 0 0 1.01408 -262.423 298.538)"/></g></svg>